# Blender 3.5.0
# www.blender.org
mtllib ground.mtl
o Plane
v -1000.000000 0.000000 1000.000000
v 1000.000000 0.000000 1000.000000
v -1000.000000 0.000000 -1000.000000
v 1000.000000 0.000000 -1000.000000
v -9.999990 0.000000 9.999990
v 9.999990 0.000000 9.999990
v -9.999990 0.000000 -9.999990
v 9.999990 0.000000 -9.999990
vn -0.0000 -1.0000 -0.0000
vn -0.0000 1.0000 -0.0000
vt 0.000000 0.000000
vt 1.000000 0.000000
vt 0.000000 1.000000
vt 1.000000 1.000000
vt 0.000000 0.000000
vt 1.000000 0.000000
vt 0.000000 1.000000
vt 1.000000 1.000000
s 0
f 1/1/1 3/3/1 4/4/1 2/2/1
f 5/5/2 6/6/2 8/8/2 7/7/2
f 4/4/2 3/3/2 7/7/2 8/8/2
f 1/1/2 2/2/2 6/6/2 5/5/2
f 2/2/2 4/4/2 8/8/2 6/6/2
f 3/3/2 1/1/2 5/5/2 7/7/2
